<svg xmlns="http://www.w3.org/2000/svg" viewBox="0 0 215.6 221.81"><title>Ресурс 1</title><g id="Слой_2" data-name="Слой 2"><g id="Слой_1-2" data-name="Слой 1"><path d="M153.05,125c-6.21-13.82-15.39-24.6-29.06-31.4l-.75,1.25a93,93,0,0,1-11.65,16.53,62.86,62.86,0,0,1-15.64,13,46.26,46.26,0,0,1-18.19,6,45.22,45.22,0,0,1-5.91.38A54.16,54.16,0,0,1,54,127.23,77.86,77.86,0,0,1,35.5,117c-1.91-1.4-3.75-2.89-5.62-4.34a5,5,0,0,1-.49-.51l15.94-19a7.85,7.85,0,0,1,.72.5A69.57,69.57,0,0,0,58.1,101.8a33.61,33.61,0,0,0,11.53,3.8,22.21,22.21,0,0,0,15-3.65A43.7,43.7,0,0,0,95.43,91.74,86.49,86.49,0,0,0,106.5,72.52c1.16-2.71,2.17-5.48,3.32-8.4,1,.08,2,.11,3.08.26A72,72,0,0,1,127.41,68a79,79,0,0,1,25,14.6,84.51,84.51,0,0,1,15.66,17.93,100.17,100.17,0,0,1,10.7,21.54c1.28,3.61,2.3,7.33,3.48,11a2.36,2.36,0,0,1-.32,2.26,94.8,94.8,0,0,0-6.49,11.44,57.9,57.9,0,0,0-5,14.25,27.66,27.66,0,0,0-.2,10.06,19.59,19.59,0,0,0,4.74,9.58,31.91,31.91,0,0,0,8.17,6.5A66.62,66.62,0,0,0,200.91,194a114.35,114.35,0,0,0,12.44,2.3c.75.11,1.57-.13,2.25.41-.49,8.14-1,16.27-1.48,24.53a11.77,11.77,0,0,1-1.34,0c-3.64-.5-7.3-.94-10.93-1.56a104.73,104.73,0,0,1-18.38-5,70.74,70.74,0,0,1-22.4-12.83,45.54,45.54,0,0,1-13.76-20.28A44.93,44.93,0,0,1,145,168.24a60.74,60.74,0,0,1,2.25-17.38c0-.18.06-.37.12-.71-.62,0-1.18-.08-1.74-.05a61.39,61.39,0,0,0-18,3.34,26.48,26.48,0,0,0-9.49,5.74,18.64,18.64,0,0,0-4.1,6A27.13,27.13,0,0,0,112,174c-.62,7.55.86,14.84,3,22a86.82,86.82,0,0,0,5.56,14.32L98.4,221.81c-.33-.61-.66-1.17-.93-1.75A120.81,120.81,0,0,1,89,195a89.28,89.28,0,0,1-1.79-12.31,67.89,67.89,0,0,1,.27-13.37,45.44,45.44,0,0,1,23.95-35.8,65.1,65.1,0,0,1,19.15-6.63,91.54,91.54,0,0,1,11.05-1.45c3.45-.26,6.89-.43,10.35-.4C152.23,125,152.54,125,153.05,125Z"/><path d="M86.41,69.13a16.82,16.82,0,0,1-5.4-.87,5.51,5.51,0,0,1-3.61-5.21A12.32,12.32,0,0,1,78,58.8c.71-2.57,1.43-5.15,2.09-7.74a15.37,15.37,0,0,0,.35-2.54,1.86,1.86,0,0,0-1-2,1.94,1.94,0,0,0-2.08,1.16c-1,2.06-1.95,4.14-2.88,6.23a28.77,28.77,0,0,1-3,5.91A10.59,10.59,0,0,1,70,61.51a5.92,5.92,0,0,1-5.87,1.2A13.53,13.53,0,0,1,56,55.84a12.83,12.83,0,0,1-1.46-4.15,6.72,6.72,0,0,1,1.91-6,12.29,12.29,0,0,1,6.67-3.3,20.41,20.41,0,0,0,6-2.06,10.94,10.94,0,0,0,2.22-1.67c.79-.77.7-1.38-.22-2a5.57,5.57,0,0,0-4.08-1c-2.75.4-5.51.87-8.27,1.19a13.2,13.2,0,0,1-4.64-.25c-3-.74-4.64-2.87-4.71-6.11a18.46,18.46,0,0,1,2.82-10.18,15.81,15.81,0,0,1,2.53-3.17A6.71,6.71,0,0,1,62,15.58a18.69,18.69,0,0,1,6.73,4.27c1.27,1.2,2.47,2.48,3.72,3.7a6.76,6.76,0,0,0,1.43,1.19,5.22,5.22,0,0,0,1.94.64c1,.07,1.48-.67,1.2-1.62A10.74,10.74,0,0,0,73.59,19a23,23,0,0,1-5.47-6.89,7.66,7.66,0,0,1-.7-4.65,6.18,6.18,0,0,1,1-2.3,8.14,8.14,0,0,1,3.38-2.79A22.85,22.85,0,0,1,81.7,0a6.34,6.34,0,0,1,6.71,6,18.41,18.41,0,0,1-.54,5.54c-.44,2.16-1.09,4.28-1.56,6.44a6.44,6.44,0,0,0,.44,4.54c.57,1.06,1,1.1,1.81.16A13.54,13.54,0,0,0,90.7,18.6c.67-1.86,1.28-3.74,2.07-5.55a14.48,14.48,0,0,1,4.45-6,6.76,6.76,0,0,1,6.36-1.16,14.49,14.49,0,0,1,7,4.68,7.07,7.07,0,0,1,.63,8.25,18.21,18.21,0,0,1-7.09,6.57,40.48,40.48,0,0,0-6,3.49,8.25,8.25,0,0,0-1.71,1.87c-.43.61-.24,1.1.44,1.41a2.54,2.54,0,0,0,1.23.25c2-.16,3.93-.37,5.9-.57.81-.08,1.61-.23,2.42-.25,2.31-.07,4.6-.67,6.94-.14A4.6,4.6,0,0,1,117,34.84a16.14,16.14,0,0,1-.62,11.07,11.4,11.4,0,0,1-5.08,5.59,6.48,6.48,0,0,1-6,.2,31.14,31.14,0,0,1-6.88-4.53c-1-.82-1.89-1.73-2.83-2.6a4.67,4.67,0,0,0-2.49-1.16c-1.38-.22-2,.4-1.72,1.76a8,8,0,0,0,.88,2c1.38,2.34,2.85,4.63,4.2,7a26.86,26.86,0,0,1,3,7.67,3.46,3.46,0,0,1-.94,3.29,11,11,0,0,1-6.53,3.28C90.11,68.76,88.26,68.9,86.41,69.13Zm3.43-35.21a6.07,6.07,0,0,0-6.15-6.14A6.12,6.12,0,1,0,83.76,40,6.11,6.11,0,0,0,89.84,33.92Z"/><path d="M24.6,191A40.91,40.91,0,0,0,18.45,198L0,186.51c.26-.43.45-.8.68-1.13a60.35,60.35,0,0,1,13.42-14,40.36,40.36,0,0,1,17.06-7.62,34.93,34.93,0,0,1,18.63,1.78,46.32,46.32,0,0,1,14,8.46,69.07,69.07,0,0,1,8.61,8.83c.17.2.33.42.59.78-5.55,4.6-11.16,9.11-16.8,13.71-2-2.18-3.79-4.5-6.1-6.26l-.14.06s-.07,0-.07.08a1.35,1.35,0,0,0-.06.34q0,14,0,28s0,.07-.1.28H24.92V191.12Z"/></g></g></svg>