<svg xmlns="http://www.w3.org/2000/svg" viewBox="0 0 335.09 189.47"><title>Ресурс 4</title><g id="Слой_2" data-name="Слой 2"><g id="Слой_1-2" data-name="Слой 1"><path d="M322.9,158.47l12.19,18.58c-1.42.82-2.74,1.61-4.1,2.34a72.07,72.07,0,0,1-21.13,7.33,63.75,63.75,0,0,1-7,.82,59.63,59.63,0,0,1-7.32.15,52,52,0,0,1-17.27-3.92A54,54,0,0,1,262,173.1c-.53-.51-1.09-1-1.68-1.5l-1.77.94a69.16,69.16,0,0,1-22,7.07c-2.45.34-4.93.5-7.4.71-1.23.1-2.48.17-3.72.16a82,82,0,0,1-20-2.63A84.5,84.5,0,0,1,193.75,174a1.36,1.36,0,0,0-1.57.25,69.54,69.54,0,0,1-26.9,13.07,75.2,75.2,0,0,1-11.46,1.86,84,84,0,0,1-11.87.1,85.05,85.05,0,0,1-16.16-2.59A114.59,114.59,0,0,1,111.55,182c-.38-.16-.75-.35-1.25-.58,2.88-6.86,5.73-13.64,8.57-20.42,2.26.82,4.39,1.65,6.55,2.38a72.15,72.15,0,0,0,15.38,3.47,56.6,56.6,0,0,0,8.82.36,50.22,50.22,0,0,0,23.54-6.85c.23-.13.45-.3.73-.49a3,3,0,0,0-.36-.59c-6.38-6.16-13.25-11.6-21.64-14.85a31.76,31.76,0,0,0-25.55.85,53.28,53.28,0,0,0-13.77,9.45A92.67,92.67,0,0,0,95.1,177c-.12.2-.25.4-.38.59a3.7,3.7,0,0,1-.26.32l-19.63-10a7.88,7.88,0,0,1,.35-.89A120.76,120.76,0,0,1,87.13,149.4a104.38,104.38,0,0,1,9.07-9.85,79.73,79.73,0,0,1,17.41-12.77,58.25,58.25,0,0,1,14.87-5.56,41.33,41.33,0,0,1,7.58-1.08c1.79-.06,3.57-.19,5.35-.16a51.7,51.7,0,0,1,12.17,1.71,66.46,66.46,0,0,1,19.26,8.57,89.36,89.36,0,0,1,14.57,11.57c2.66,2.61,5.21,5.32,7.8,8a7,7,0,0,0,2,1.48,75.77,75.77,0,0,0,15.1,5.35,46.3,46.3,0,0,0,8.37,1.31c2.44.11,4.88.25,7.32.17a46.81,46.81,0,0,0,15.83-3.4c.92-.37,1.83-.79,2.93-1.26-1-1.24-1.85-2.33-2.75-3.38a37.43,37.43,0,0,0-8.92-7.77,25.32,25.32,0,0,0-13.23-3.87,30.74,30.74,0,0,0-13.45,3.24c-1.18.56-2.33,1.2-3.5,1.81-4.33-6-8.63-11.9-13-17.93.42-.29.79-.57,1.17-.82a53.4,53.4,0,0,1,14.94-6.64,47.49,47.49,0,0,1,10.4-1.73c1.28-.05,2.56-.16,3.83-.16a45.62,45.62,0,0,1,15.81,2.89,53,53,0,0,1,17.46,10.92,80.33,80.33,0,0,1,13.77,17.08,48.88,48.88,0,0,0,6.7,8.63,31.37,31.37,0,0,0,14.83,8.81,32.21,32.21,0,0,0,6.19.9c9,.42,17.09-2.35,24.87-6.49Z"/><path d="M99.17,75.64c-1.63-1.52-3.1-3-4.64-4.31A67.12,67.12,0,0,0,84,63.67a40.39,40.39,0,0,0-14.43-5.33A30.62,30.62,0,0,0,54.46,60a48.37,48.37,0,0,0-15.31,9.37A90,90,0,0,0,22.06,89.84c-.79,1.28-1.56,2.58-2.41,4L0,83.78a3.4,3.4,0,0,1,.22-.68A117.39,117.39,0,0,1,16.29,60.6a87.17,87.17,0,0,1,18-15.38,60.33,60.33,0,0,1,21-8.5,39.07,39.07,0,0,1,7.39-.81c1.16,0,2.32-.19,3.48-.15a58.88,58.88,0,0,1,20.56,4.46,75.51,75.51,0,0,1,18.69,11.26c2.82,2.3,5.55,4.73,8.18,7.25s4.81,5,7.21,7.44a3,3,0,0,0,.82.61,72.31,72.31,0,0,0,19,6.41,56.15,56.15,0,0,0,8.2.86,53.18,53.18,0,0,0,5.79-.12,48.4,48.4,0,0,0,16.69-4.29c.13-.07.25-.17.5-.33-.25-.36-.47-.71-.72-1a41.23,41.23,0,0,0-11.06-10.21,24.83,24.83,0,0,0-15.23-3.7,33.16,33.16,0,0,0-12.7,3.92c-.65.34-1.27.72-2,1.13l-13-18c.62-.42,1.17-.83,1.76-1.19A54.07,54.07,0,0,1,137.51,33a66.71,66.71,0,0,1,7.73-.87,45,45,0,0,1,5.33.12,42.89,42.89,0,0,1,11.58,2.35,52.82,52.82,0,0,1,19.24,11.93A79.18,79.18,0,0,1,193.85,62a55,55,0,0,0,7.84,10.11,30.88,30.88,0,0,0,16.47,8.81,33.57,33.57,0,0,0,8.79.36,52.22,52.22,0,0,0,20.34-6.53c.23-.12.47-.22.79-.37l12.11,18.46c-.34.25-.57.44-.83.6a72.78,72.78,0,0,1-21.86,8.67,62.37,62.37,0,0,1-17.81,1.38,50.8,50.8,0,0,1-17.3-4.28,53.46,53.46,0,0,1-14.7-9.72l-2.19-2-.8.4A70.61,70.61,0,0,1,163,95.28a70.15,70.15,0,0,1-7.39.81c-2.9.16-5.82.26-8.72.15A74,74,0,0,1,136.5,95,93.39,93.39,0,0,1,119,90a1.49,1.49,0,0,0-1.69.21,69.73,69.73,0,0,1-28,13.34A71.4,71.4,0,0,1,79.86,105a64.63,64.63,0,0,1-9.53.35c-3.48-.19-7-.46-10.41-1a99.08,99.08,0,0,1-23.13-6.47c-.42-.17-.84-.37-1.34-.59L44,76.91l6.21,2.23a72.25,72.25,0,0,0,14,3.42A56.1,56.1,0,0,0,76.29,83a49.32,49.32,0,0,0,16.95-4.18c1.66-.75,3.26-1.63,4.87-2.47A11.72,11.72,0,0,0,99.17,75.64Z"/><path d="M238.25,34.36c-2,.2-4,.33-6,.61a5.75,5.75,0,0,0-2,.86c-.73.42-.83,1.09-.18,1.61a8.19,8.19,0,0,0,2.19,1.25c3.18,1.23,6.41,2.34,9.58,3.59a16.72,16.72,0,0,1,3,1.71,4.17,4.17,0,0,1,1.78,4.27A14.45,14.45,0,0,1,244,55c-.46.63-.93,1.25-1.44,1.83a11.77,11.77,0,0,1-8.05,3.95,6.47,6.47,0,0,1-6.17-3.06A33,33,0,0,1,224,49.39a17.33,17.33,0,0,0-.88-2.15,3.82,3.82,0,0,0-1.89-1.83c-.81-.39-1.38-.24-1.68.58a4.75,4.75,0,0,0-.32,1.93c.14,2.24.42,4.48.58,6.72a33.09,33.09,0,0,1-.59,10.07,3.29,3.29,0,0,1-2.1,2.43,9.75,9.75,0,0,1-5.37.54,25.4,25.4,0,0,1-8.62-3,16.75,16.75,0,0,1-2.61-1.93,5.48,5.48,0,0,1-1.18-6.9,17,17,0,0,1,2.26-3.22c1.58-1.87,3.28-3.63,4.87-5.49a20.32,20.32,0,0,0,1.74-2.47,2.75,2.75,0,0,0,.39-1.18,1.23,1.23,0,0,0-1.67-1.41,3.56,3.56,0,0,0-1.32.69c-2.21,1.78-4.36,3.62-6.59,5.37a26.2,26.2,0,0,1-3.83,2.62,6.32,6.32,0,0,1-8.36-1.52,14.26,14.26,0,0,1-3.4-8.72,13.45,13.45,0,0,1,.36-4,6.58,6.58,0,0,1,4.72-5,11.8,11.8,0,0,1,6.43,0,23.44,23.44,0,0,0,7.11,1,9.59,9.59,0,0,0,2.59-.56c1-.36,1.1-1,.57-1.83a5.58,5.58,0,0,0-2.95-2.53c-1.75-.6-3.57-1-5.31-1.69s-3.58-1.47-5.33-2.3a6.8,6.8,0,0,1-2.47-2.09,5.5,5.5,0,0,1-1-4.73A10.5,10.5,0,0,1,190,12.8a18,18,0,0,1,8.55-6.93c3.45-1.26,6.57-.48,8.73,2.38A23.85,23.85,0,0,1,210.82,15c.49,1.43,1,2.87,1.43,4.3a5.07,5.07,0,0,0,1.51,2.44,1.57,1.57,0,0,0,1.73.35c.57-.25.63-.84.66-1.39a13.21,13.21,0,0,0-.91-5.23,49.91,49.91,0,0,1-1.6-5.58,11,11,0,0,1,.07-5.08A5.73,5.73,0,0,1,217.84.5,13.87,13.87,0,0,1,224.4.29a25.54,25.54,0,0,1,5.69,1.63,6.6,6.6,0,0,1,4.38,5.42A7.32,7.32,0,0,1,233.33,12a33.53,33.53,0,0,1-4.21,5.57,16.55,16.55,0,0,0-3.28,4.34,5.22,5.22,0,0,0-.58,2.82c.1.78.45,1,1.2.73A10.61,10.61,0,0,0,230.1,23c1.31-1.27,2.56-2.61,4-3.79a16.49,16.49,0,0,1,6.73-3.79,6.8,6.8,0,0,1,6.95,1.84,13.65,13.65,0,0,1,4,7.88,6.41,6.41,0,0,1-3.21,6.71A16.66,16.66,0,0,1,238.25,34.36Zm-20.62-7.3a6.1,6.1,0,0,0-6.1,5.93,6,6,0,1,0,12.09.12A6.1,6.1,0,0,0,217.63,27.06Z"/><path d="M312.46,118.53c-1.81.2-3.63.34-5.42.62a5.89,5.89,0,0,0-2,.86c-.76.47-.83,1-.15,1.59a6.27,6.27,0,0,0,1.88,1.11c2.75,1.05,5.53,2,8.29,3.06a20.18,20.18,0,0,1,2.26.92,14.87,14.87,0,0,1,2.39,1.44,4.48,4.48,0,0,1,1.73,4.63,15.55,15.55,0,0,1-5.16,9.28,10.76,10.76,0,0,1-8.61,2.78,6,6,0,0,1-4.18-2.52,32,32,0,0,1-4.6-8.58,7.24,7.24,0,0,0-1.75-3.37,6.35,6.35,0,0,0-1-.77c-.81-.46-1.46-.3-1.76.58a6.25,6.25,0,0,0-.28,2.28c.09,1.66.38,3.31.44,5,.09,2.75.12,5.5,0,8.25a21.82,21.82,0,0,1-.66,3.54,2.49,2.49,0,0,1-1.48,1.83,9.12,9.12,0,0,1-5.18.85,25.2,25.2,0,0,1-9.52-3.23,13.77,13.77,0,0,1-2.81-2.24,5,5,0,0,1-1-5.72,12.09,12.09,0,0,1,1.82-3.08c1.51-1.83,3.2-3.49,4.74-5.29a38.86,38.86,0,0,0,2.5-3.35,3.14,3.14,0,0,0,.52-1.27,1.29,1.29,0,0,0-1.71-1.51,4.07,4.07,0,0,0-1.41.78c-2.18,1.75-4.3,3.57-6.5,5.3a28.61,28.61,0,0,1-3.74,2.54,6.39,6.39,0,0,1-8.64-1.68,13.21,13.21,0,0,1-3.15-8.56,19,19,0,0,1,.33-3.92c.68-3.28,3-4.85,6.23-5.41a16.54,16.54,0,0,1,6.18.6,46.92,46.92,0,0,0,4.7.76,7.34,7.34,0,0,0,3.74-.62c.87-.41,1-.9.57-1.78a5.46,5.46,0,0,0-3.33-2.73c-1.76-.59-3.58-1-5.31-1.69a40.26,40.26,0,0,1-5.2-2.3,6,6,0,0,1-3.33-4.52,6.4,6.4,0,0,1,.6-3.63,18.64,18.64,0,0,1,8.42-8.72,9.42,9.42,0,0,1,4-1.21,7,7,0,0,1,6,2.73,23.52,23.52,0,0,1,4.07,7.79c.41,1.25.8,2.51,1.25,3.76a4.27,4.27,0,0,0,1.71,2.42c1.07.64,1.92.25,2.07-1a11.13,11.13,0,0,0-.68-4.91,56.06,56.06,0,0,1-1.74-5.9,14.47,14.47,0,0,1-.17-4.16c.33-3.85,2.78-5.55,6.21-5.88A21.76,21.76,0,0,1,304.81,86a9.1,9.1,0,0,1,1.54.82,6.23,6.23,0,0,1,2.73,7.07,11,11,0,0,1-1.59,3.34,44.34,44.34,0,0,1-4.62,5.69,12,12,0,0,0-2.28,3.35,5.13,5.13,0,0,0-.48,2.61c.07.69.33.91,1,.79a2.35,2.35,0,0,0,1-.38,29,29,0,0,0,3-2.33,40.48,40.48,0,0,1,6.41-5.57,12.33,12.33,0,0,1,5.86-2,6.85,6.85,0,0,1,5.79,2.67,13.77,13.77,0,0,1,3.07,5.7c1,3.75,0,6.6-3.36,8.55A17.82,17.82,0,0,1,312.46,118.53Zm-20.13,4.7c2.69.31,6.11-2.21,6.15-6a6.07,6.07,0,0,0-12.13-.06A6,6,0,0,0,292.33,123.23Z"/></g></g></svg>