<svg xmlns="http://www.w3.org/2000/svg" viewBox="0 0 556.61 220.6"><defs><style>.cls-1{fill:none;stroke:#fff;stroke-miterlimit:10;stroke-width:2px;}</style></defs><title>Ресурс 1</title><g id="Слой_2" data-name="Слой 2"><g id="Слой_1-2" data-name="Слой 1"><path class="cls-1" d="M101.68,26.13c-1.24,2.22-2.43,4.57-3.83,6.78C94.62,38,94,43.62,94.41,49.48a19.11,19.11,0,0,0,2.78,8.62c.7,1.19,1.41,1.41,2.36,1A2.25,2.25,0,0,0,100.91,57a21.76,21.76,0,0,0-.2-3.22c-.25-2.38-.73-4.74-.79-7.12a27.64,27.64,0,0,1,1.53-9,43.31,43.31,0,0,1,5.23-10.8,18.5,18.5,0,0,0,2.9-9.49A43.41,43.41,0,0,0,108,4c-.11-.43-.17-.87-.31-1.63a41.86,41.86,0,0,1,6.53,6.32c6.23,7.37,10.57,15.67,12.06,25.29a27.58,27.58,0,0,1-.13,9.63,14.21,14.21,0,0,1-3.48,7c-2.05,2.25-4.23,4.39-6.42,6.51a8,8,0,0,0-2.74,4.71c-.18,1.4.34,2,1.71,1.73a11.85,11.85,0,0,0,4.13-1.6,63.39,63.39,0,0,0,7.16-5.69c2.48-2.33,3.63-5.46,4.24-8.76.38-2.09.58-4.21.89-6.51A18.28,18.28,0,0,1,135,44.77a37.14,37.14,0,0,1,7.47,15.76,21.6,21.6,0,0,1,.11,9.09,17.63,17.63,0,0,1-1.47,4,7.27,7.27,0,0,1-7.73,4.4c-2.78-.3-5.52-1-8.27-1.53-1.82-.36-3.62-.82-5.43-1.22a7.36,7.36,0,0,0-1.25-.14c-.83,0-1.65.14-1.9,1a1.67,1.67,0,0,0,1,1.93c2,1,3.93,2,6,3,2.24,1,4.54,1.85,6.81,2.78a7.41,7.41,0,0,1,1.12.58c3.25,2.14,4.25,5.12,2.78,8.73A21.54,21.54,0,0,1,128,101.2a24.62,24.62,0,0,1-4.73,3.21,11.18,11.18,0,0,1-3.61.94,3.62,3.62,0,0,1-3.28-1.49,31.74,31.74,0,0,1-5-8.49c-1-2.47-2-5-3-7.5a9.11,9.11,0,0,0-1.45-2.44c-.63-.75-1.16-.66-1.81.07a3.93,3.93,0,0,0-1,3c.1,1.55.38,3.1.36,4.64a71.35,71.35,0,0,1-.44,8.41c-.53,3.87-3.63,6.42-7.71,6.82-6.22.61-11.08-1.86-14.93-6.57a5.55,5.55,0,0,1-.61-6.69,12.11,12.11,0,0,1,1.52-2.22c2.11-2.29,4.27-4.53,6.41-6.8.9-1,1.85-1.89,2.67-2.91.5-.62,1.29-1.48.6-2.2a2.73,2.73,0,0,0-2.29-.54,30.24,30.24,0,0,0-5.88,2.17,23.72,23.72,0,0,1-12,3A7.74,7.74,0,0,1,63.9,79a16.28,16.28,0,0,1,.22-7.63c1.13-4.09,3.5-6.14,7.75-6.57a23,23,0,0,1,9,1.15c2.06.62,4.09,1.34,6.17,1.91a4.49,4.49,0,0,0,3.65-.36,4.4,4.4,0,0,0-2-3c-1.57-1-3.23-1.8-4.89-2.61-2.09-1-4.25-1.92-6.34-3a11.27,11.27,0,0,1-3.91-3.39c-2.22-3-2.35-5.89-.34-9a22.08,22.08,0,0,1,6.58-6.3c4.19-2.78,8.51-5.36,12.75-8.08C95.63,30.21,98.64,28.16,101.68,26.13Zm.79,53.45A6.6,6.6,0,0,0,109.12,73a6.77,6.77,0,0,0-6.61-6.69c-3.47-.2-6.6,3-6.6,6.64A6.54,6.54,0,0,0,102.47,79.58Z"/><path class="cls-1" d="M424.58,190.6H404.53L391,168.27c-.76.82-1.41,1.48-2,2.18-.94,1.08-1.8,2.24-2.8,3.27a2.9,2.9,0,0,0-.85,2.24c0,4.38,0,8.76,0,13.13,0,.47-.07.93-.11,1.49H368.39v-2c0-4.14,0-8.28,0-12.42a3.29,3.29,0,0,0-.84-2.44c-1.61-1.76-3.15-3.59-4.85-5.54l-13.62,22.4H329.17c2.33-4.06,4.89-7.79,7.28-11.61s4.83-7.58,7.25-11.37l7.49-11.71c-7-8.44-14.16-16.73-21.32-25.34a6,6,0,0,1,1.14-.24c5.76,0,11.52,0,17.28,0a2.35,2.35,0,0,1,2.06,1.13q8.19,10.58,16.44,21.12c.4.51.83,1,1.49,1.81.22-2.24.08-4.17.11-6.1s0-4,0-5.94V130.68c1.34-.42,14.49-.52,16.88-.13v23.69a16,16,0,0,0,1.2-1.21c5.5-7,11-14.05,16.44-21.12a3.59,3.59,0,0,1,3.28-1.61c5.21.1,10.43,0,15.65,0H424l-21.57,25.54Z"/><path class="cls-1" d="M198.72,175.92h6.85c-.63,9-1.25,17.75-1.88,26.65H189.46V191.06c-1.44-.44-28.83-.59-31.92-.21-.36,3.86-.74,7.76-1.11,11.72H141.36V176.05h5.24c.54-1.55,1.06-2.94,1.51-4.35a81.44,81.44,0,0,0,3.59-17.54c.29-3.28.55-6.55.71-9.83.22-4.48.32-9,.47-13.44,1.26-.38,42.56-.54,45.84-.15Zm-16.88-.09V145.19h-13a91.22,91.22,0,0,1-4.53,30.64Z"/><path class="cls-1" d="M321.48,46.47V91.1h6.6c-.63,8.88-1.25,17.55-1.87,26.2-1.33.39-11.1.5-14,.15V105.84H280.85c-.39,3.85-.77,7.68-1.16,11.7-5,.17-9.84,0-14.84.09V91.21h5.2c.62-1.84,1.24-3.51,1.76-5.22a79.72,79.72,0,0,0,3.35-17.58c.31-4.23.51-8.47.72-12.71.15-3,.25-6.07.37-9.23ZM304.6,61H292.09a90.16,90.16,0,0,1-4.56,30H304.6Z"/><path class="cls-1" d="M431,130.42h48.13v14.23c-2,.19-4.09,0-6.16.08s-4.2,0-6.3,0H447.56v6.75c.62,0,1.2.09,1.78.09,4,0,7.92-.09,11.88,0a27.43,27.43,0,0,1,13.55,3.62,16.45,16.45,0,0,1,8.42,14.71,27.94,27.94,0,0,1-.39,5.71c-1.13,5.9-4.64,10-10,12.54a27.09,27.09,0,0,1-11.66,2.5q-14.13,0-28.26,0H431C430.5,188.77,430.57,131.69,431,130.42Zm16.48,33.75c0,4.3-.12,8.34.08,12.47,3.76,0,7.29.05,10.82,0a14.06,14.06,0,0,0,3.87-.64,5.69,5.69,0,0,0,4-7.19c-.64-2.57-2.64-3.78-5.07-4.24a25.56,25.56,0,0,0-4.46-.35C453.7,164.14,450.72,164.17,447.48,164.17Z"/><path class="cls-1" d="M334.55,46.42h15.89l.15.15s.09.09.1.14a3.31,3.31,0,0,1,.06.54q0,15.64,0,31.3a1.94,1.94,0,0,0,.13.33,7.74,7.74,0,0,0,.8-.87q5.43-7.83,10.82-15.68c3.47-5,6.92-10.07,10.41-15.09a1.91,1.91,0,0,1,1.2-.85c4.91-.06,9.83,0,14.87,0v59.29H372.75c0-2.7,0-5.37,0-8s0-5.4,0-8.1V73a11.25,11.25,0,0,0-1.08,1.13q-7,10.22-14.05,20.44c-2.27,3.31-4.57,6.61-6.79,10a2.62,2.62,0,0,1-2.51,1.29c-4-.08-8,0-12,0-.53,0-1.05-.06-1.68-.09Z"/><path class="cls-1" d="M201.27,46.46v13.9H170.18v6.49a14,14,0,0,0,1.4.13c2.88,0,5.76,0,8.64,0a40.7,40.7,0,0,1,11.52,1.47c5,1.5,9.17,4.22,11.61,9a19.78,19.78,0,0,1,1.44,13.66c-1.39,6.14-5.2,10.25-11,12.59a28,28,0,0,1-10.33,2c-9.54.08-19.07,0-28.61,0-.35,0-.71,0-1.05-.07-.39-1.29-.49-56.87-.11-59.21ZM170.22,79.58c-.36,3.16-.23,10.82.2,12.12H181a5.77,5.77,0,0,0,1.25,0,16,16,0,0,0,3.26-.9A5.72,5.72,0,0,0,187.41,82a5.81,5.81,0,0,0-3.88-2.06c-2.25-.23-4.52-.27-6.79-.32S172.46,79.58,170.22,79.58Z"/><path class="cls-1" d="M1,46.44H54.06v59.3H37.52c-.08-2.55,0-5,0-7.41s0-5,0-7.56V61h-20v44.7c-5.57.08-11,0-16.5,0Z"/><path class="cls-1" d="M257.42,69.13V82.32H229.21v9.12H260.9v14c-1.28.37-45.89.46-48,.08v-59h47.67V60.37H229.2v8.76Z"/><path class="cls-1" d="M452.5,105.64H436.06V61H422.5c0,.49-.1.89-.11,1.29-.05,3.6.05,7.21-.15,10.79-.41,7.23-1,14.45-3.49,21.35a30.3,30.3,0,0,1-2.24,4.88,13.65,13.65,0,0,1-10.82,7.13,33.92,33.92,0,0,1-12.57-1.19c0-4.28.69-8.44.95-12.8l2.81.31c3.06.32,5-.77,6.26-3.18a20.56,20.56,0,0,0,2.16-7.19c.54-4.14,1.05-8.31,1.21-12.48.27-7.25.28-14.5.4-21.75,0-.52.06-1,.1-1.67H452.5Z"/><path class="cls-1" d="M555.1,190.63H537c-1.44-3.52-2.89-7-4.36-10.64H509.55c-1.4,3.51-2.8,7-4.24,10.59h-17.4a.47.47,0,0,1-.09-.1.28.28,0,0,1-.05-.17,3.12,3.12,0,0,1,.11-.53l25.31-59.72h16.23C537.92,150.12,546.46,170.25,555.1,190.63Zm-40.47-24h13l-6.46-16.38Z"/><path class="cls-1" d="M480,95.15c-.71,1.74-1.44,3.5-2.15,5.27-.59,1.44-1.18,2.88-1.73,4.34a1.25,1.25,0,0,1-1.28,1c-5.44,0-10.89,0-16.65,0,8.5-20.1,16.89-40,25.32-59.91.51,0,1-.08,1.44-.08,4.32,0,8.63,0,12.95,0a2,2,0,0,1,2.25,1.51Q509,68.5,518.07,89.72q3,7,5.95,14.06c.22.53.4,1.09.6,1.65-1.47.39-13.32.52-17.64.21-.7-1.65-1.45-3.4-2.18-5.15s-1.43-3.54-2.16-5.34ZM497.75,82l-6.22-15.9-.34,0L484.91,82Z"/><path class="cls-1" d="M230.12,173.53v17.06H213.61V130.34h1.87c7.73,0,15.47-.08,23.21,0,5.22.08,10.39.66,15.13,3.17,6.87,3.64,10.33,9.38,10.54,17.11a25.1,25.1,0,0,1-.54,7c-1.81,7.12-6.48,11.55-13.19,14a30.81,30.81,0,0,1-11.09,1.89c-2.45,0-4.91,0-7.37,0Zm.12-13.11c2.83,0,5.46.06,8.08,0a13.65,13.65,0,0,0,3.7-.62c4.1-1.31,5.65-3.91,5.59-7.43-.06-3.71-1.62-6.17-6-7.25-3.64-.91-7.38-.45-11.09-.38-.09,0-.18.14-.31.26Z"/><path class="cls-1" d="M276.44,175.38c5.85,2.86,8.91,2.73,11.94-.51L265,130.68c1.42-.43,14.13-.58,18.7-.24,4.44,9.17,8.93,18.42,13.6,28.05,4.39-9.6,8.63-18.85,12.85-28.09h18.28c-.24.53-.41.95-.61,1.35-3.5,6.89-7,13.79-10.51,20.66-4.66,9.06-9.31,18.11-14,27.13a25.28,25.28,0,0,1-6.77,8.3,17.25,17.25,0,0,1-10.47,3.7A27.44,27.44,0,0,1,274.86,190c-1.65-.66-3.24-1.48-5.06-2.32Z"/><path class="cls-1" d="M102.69,141.38c-8.1,0-16.2-.08-24.29,0a3.79,3.79,0,0,1-4.12-4.06c.09-6.9.12-13.8,0-20.7-.06-3,1.39-4.73,4.66-4.71,10.55.08,21.11,0,31.67,0h15.83c.36,0,.72,0,1.08,0,2.52.11,3.88,1.46,3.9,4,0,3.66,0,7.32,0,11s0,7.07,0,10.61c0,2.57-1.32,3.84-3.9,3.84Z"/><path class="cls-1" d="M102.82,147.61c3.66,0,7.32,0,11,0a8,8,0,0,1,1.95.24,3.07,3.07,0,0,1,2.45,3.31,62.34,62.34,0,0,1-.89,6.38c-1.86,10.42-3.77,20.83-5.66,31.25-1.65,9.11-3.28,18.24-5,27.35-.42,2.32-1.8,3.48-3.9,3.45a3.58,3.58,0,0,1-3.68-3c-.86-4.64-1.67-9.3-2.52-13.94l-6-33q-1.5-8.3-3-16.59c0-.24-.06-.48-.08-.72-.36-3,1.1-4.65,4.14-4.68,2.58,0,5.16,0,7.74,0Z"/></g></g></svg>