<svg xmlns="http://www.w3.org/2000/svg" viewBox="0 0 1330.1 1322.51"><defs><style>.cls-1,.cls-2,.cls-3{fill:none;stroke:#221f20;stroke-miterlimit:10;}.cls-2{stroke-width:1.02px;}.cls-3{stroke-width:1.01px;}</style></defs><title>Ресурс 25</title><g id="Слой_2" data-name="Слой 2"><g id="Слой_1-2" data-name="Слой 1"><path class="cls-1" d="M517.6,840.68s-125.35-57.52-258,29.24c-137.43,89.87-114.76,198-114.76,198"/><path class="cls-1" d="M511.72,473.17S367,415.07,211.11,459C27.13,510.83,11.87,595.27,11.87,595.27"/><polyline class="cls-1" points="606.2 352.1 579.39 304.82 657.78 260.38"/><polyline class="cls-1" points="578.36 89.85 529.29 113.23 490.52 31.89"/><polyline class="cls-1" points="49.31 890.59 98.92 868.38 135.75 950.62 86.8 976.55"/></g><g id="Слой_2-2" data-name="Слой 2"><circle class="cls-1" cx="665.05" cy="665.05" r="656.8"/><circle class="cls-1" cx="872.05" cy="652.55" r="370.24"/><circle class="cls-1" cx="904.93" cy="1242.88" r="6.32"/><circle class="cls-1" cx="1051.49" cy="1152.75" r="6.32"/><circle class="cls-1" cx="1169.63" cy="1032.08" r="6.32"/><circle class="cls-1" cx="742.32" cy="1281.07" r="6.32"/><circle class="cls-1" cx="570.61" cy="1281.89" r="6.32"/><circle class="cls-1" cx="407.48" cy="1234.72" r="6.32"/><circle class="cls-1" cx="268.65" cy="1146.42" r="6.32"/><ellipse class="cls-2" cx="326.5" cy="475.49" rx="6.32" ry="6.56" transform="translate(-155.49 792.32) rotate(-88.84)"/><ellipse class="cls-2" cx="480.18" cy="487.28" rx="6.32" ry="6.56" transform="translate(-16.7 957.52) rotate(-88.84)"/><ellipse class="cls-2" cx="184.37" cy="496.77" rx="6.32" ry="6.56" transform="translate(-316.02 671.07) rotate(-88.84)"/><ellipse class="cls-2" cx="61.45" cy="568.28" rx="6.32" ry="6.56" transform="translate(-507.96 618.24) rotate(-88.84)"/><circle class="cls-1" cx="872.05" cy="652.55" r="281.63"/><circle class="cls-1" cx="872.05" cy="652.55" r="288.89"/><circle class="cls-1" cx="872.05" cy="652.55" r="295.51"/><circle class="cls-1" cx="872.05" cy="652.55" r="301.61"/><circle class="cls-1" cx="872.05" cy="652.55" r="309.11"/><circle class="cls-1" cx="872.05" cy="652.55" r="317.08"/><circle class="cls-1" cx="872.05" cy="652.55" r="324.35"/><circle class="cls-1" cx="872.05" cy="652.55" r="331.04"/><circle class="cls-1" cx="872.05" cy="652.55" r="337.53"/><circle class="cls-1" cx="872.05" cy="652.55" r="346.23"/><circle class="cls-1" cx="872.05" cy="652.55" r="354.17"/><circle class="cls-1" cx="872.05" cy="652.55" r="361.47"/><rect class="cls-1" x="619.61" y="1.75" width="4.25" height="342.08" rx="1.98" transform="translate(-13.91 283.98) rotate(-25.45)"/><rect class="cls-1" x="902.59" y="54.37" width="4.25" height="230.1" rx="1.62"/><rect class="cls-1" x="1170.92" y="287.53" width="3.46" height="117.55" rx="1.26" transform="translate(629.6 -749.2) rotate(47.18)"/><path class="cls-3" d="M139.86,1072.2a666.76,666.76,0,0,1-74.43-121C-92.59,620,47.76,223.46,378.92,65.43s727.72-17.67,885.75,313.49c88.89,186.27,83.37,393.25,2.58,566.82"/><rect class="cls-1" x="574.94" y="903.97" width="46.77" height="6.04" transform="translate(854.3 -148.99) rotate(47.04)"/><rect class="cls-1" x="1118.98" y="907.01" width="46.77" height="6.04" transform="translate(2589.96 716.09) rotate(133.83)"/><rect class="cls-1" x="508.92" y="493.77" width="46.77" height="6.04" transform="translate(1204.43 216.79) rotate(114.36)"/><rect class="cls-1" x="1188.38" y="493.77" width="46.77" height="6.04" transform="translate(1164.5 -812.01) rotate(65.64)"/><rect class="cls-1" x="1153.63" y="346.13" width="46.77" height="6.04" transform="translate(76.38 893.08) rotate(-42.82)"/><rect class="cls-1" x="766.52" y="6.07" width="46.77" height="6.04" transform="translate(17.29 -155.51) rotate(11.37)"/><rect class="cls-1" x="588.87" y="162.46" width="46.77" height="6.04" transform="translate(498.54 -458.47) rotate(64.55)"/><rect class="cls-1" x="774.32" y="283.81" width="46.77" height="6.04" transform="translate(-41.9 169.94) rotate(-11.85)"/><rect class="cls-1" x="1011.93" y="313.79" width="46.77" height="6.04" transform="translate(235.69 -413.16) rotate(25.38)"/><path class="cls-1" d="M516.47,841.28q-4-7.56-7.73-15.36C416.11,631.8,492.69,400.58,679.47,299"/></g></g></svg>