<svg xmlns="http://www.w3.org/2000/svg" viewBox="0 0 239.1 241.54"><defs><style>.cls-1{fill:#fff;}</style></defs><title>Ресурс 3</title><g id="Слой_2" data-name="Слой 2"><g id="Слой_1-2" data-name="Слой 1"><path d="M1.53,241.54c-.11-1.58-.21-3-.3-4.35C1.09,234.78,1,232.38.82,230c-.18-3.18-.35-6.35-.53-9.53C.21,219,.11,217.51,0,216c0-.85.09-1,.93-1.11,3.29-.47,6.61-.82,9.88-1.45a78.47,78.47,0,0,0,21.12-7,38.75,38.75,0,0,0,10.17-7.12,21.42,21.42,0,0,0,6.45-14,34.35,34.35,0,0,0-1.26-11.18,82,82,0,0,0-9.23-20.65,11.88,11.88,0,0,0-.93-1.48c-2-2.39-2.46-5.31-3-8.21-.81-4.78-1.66-9.55-2.28-14.36a116.22,116.22,0,0,1-.8-18.37,99.86,99.86,0,0,1,4-25.58,81.78,81.78,0,0,1,8-18.44c.19-.33.37-.67.6-1.09-.31-.21-.57-.42-.86-.59-4.43-2.58-6.62-6.65-7.52-11.49a24.88,24.88,0,0,1-.25-5.11,5.28,5.28,0,0,1,3.52-5,18,18,0,0,1,5.09-1.07c2.27-.28,4.54-.5,6.82-.7,1.62-.14,3.25-.14,4.87-.32a6.61,6.61,0,0,0,2.3-.7c.92-.49,1-1.09.28-1.88a4.36,4.36,0,0,0-1.35-1.26c-2-.88-4-1.71-6-2.45-1.55-.56-3.22-.84-4.76-1.44a20.08,20.08,0,0,1-7.92-5.56A8.13,8.13,0,0,1,37,19.22a17,17,0,0,1,6.81-7,8,8,0,0,1,8.09-.08,15.38,15.38,0,0,1,4.38,3.43A34.56,34.56,0,0,1,61,22.46a18.65,18.65,0,0,0,3.65,5.23,6.87,6.87,0,0,0,1.09.86c.67.4,1.06.25,1.37-.48a6.23,6.23,0,0,0,.27-3.65,16.56,16.56,0,0,0-1.87-4.87A46.35,46.35,0,0,1,62,11.18a10,10,0,0,1-.31-5.06A7,7,0,0,1,66.58.78,12.43,12.43,0,0,1,70.1.08a30.56,30.56,0,0,1,9.48.66,12,12,0,0,1,5.1,2.68A6.56,6.56,0,0,1,86.76,8.2a12.79,12.79,0,0,1-.88,4.89,29,29,0,0,1-4.12,7.27A13.79,13.79,0,0,0,79,26.18a3.59,3.59,0,0,0-.11.8,1.41,1.41,0,0,0,1.79,1.43,4.64,4.64,0,0,0,2.85-2.06q1.68-2.45,3.32-4.93A27,27,0,0,1,92.7,15l.55-.43a8.8,8.8,0,0,1,10.81.13A22.19,22.19,0,0,1,110.57,23a16.19,16.19,0,0,1,1.72,5.29,14.87,14.87,0,0,1,.07,2.67c-.18,2.79-1.83,4.52-4.24,5.64a17.9,17.9,0,0,1-4.84,1.21,77.59,77.59,0,0,1-9.4.51,7.13,7.13,0,0,0-5.49,2.37c-.62.73-.67,1.17,0,1.79a8.42,8.42,0,0,0,1.94,1.24A16.44,16.44,0,0,0,95.89,45c1.46.14,2.94.19,4.41.24a12.76,12.76,0,0,1,8.08,2.8A7.86,7.86,0,0,1,111.23,55a17.92,17.92,0,0,1-4.57,10.85,12.88,12.88,0,0,1-4.82,3.4,6.92,6.92,0,0,1-6.58-.56,19.17,19.17,0,0,1-5.34-5.61c-1.87-2.67-3.74-5.34-5.64-8a4.76,4.76,0,0,0-1.2-1.25c-1.42-.94-2.65-.28-2.68,1.41a4.58,4.58,0,0,0,.23,1.37,45,45,0,0,0,3.76,8.49,24.11,24.11,0,0,1,2.67,6.06,11.18,11.18,0,0,1,.26,3,5.83,5.83,0,0,1-2.6,4.71,15.08,15.08,0,0,1-5.56,2.26l-1.71.38c.25,1.19.43,2.33.72,3.44a23.55,23.55,0,0,0,6.11,11,27.45,27.45,0,0,0,8.94,5.8,50.52,50.52,0,0,0,12,3.33,70.93,70.93,0,0,0,10.29,1c1.7,0,3.41.21,5.11.15a77.57,77.57,0,0,0,20.86-3.06,32,32,0,0,0,12.06-6.59,23.45,23.45,0,0,0,7.06-13.1c.1-.52.17-1.06.27-1.69-.38-.12-.7-.25-1-.32a10.87,10.87,0,0,1-4.48-2.13,3.68,3.68,0,0,1-1.44-3,30.68,30.68,0,0,1,1.65-9.6c1-3,2.18-6.06,3.23-9.1a10.23,10.23,0,0,0,.68-2.8c.08-1.51-.84-2.09-2.28-1.6A6.22,6.22,0,0,0,154,55.58c-.6.86-1.18,1.73-1.81,2.57a39.18,39.18,0,0,1-6.54,6.77,8.14,8.14,0,0,1-9.14,1.25A13.55,13.55,0,0,1,130.35,61a19.11,19.11,0,0,1-3-12c.15-1.49.41-2.89,1.59-3.86a11.66,11.66,0,0,1,2.49-1.45,14.16,14.16,0,0,1,4.77-.9c3.13-.29,6.26-.51,9.38-.78,1-.09,2.07-.25,3.11-.39a2.68,2.68,0,0,0,.56-.13c1.63-.59,1.87-1.52.62-2.7a6.83,6.83,0,0,0-1.9-1.3,32.81,32.81,0,0,0-5.1-1.94,36.32,36.32,0,0,1-5.41-1.75,19.87,19.87,0,0,1-7.2-5.22A7.62,7.62,0,0,1,129,19.88a16,16,0,0,1,8-8.1,7.3,7.3,0,0,1,5.88-.19,13.41,13.41,0,0,1,4.41,2.77,32.63,32.63,0,0,1,6.07,8.2,50.36,50.36,0,0,0,3,4.54,6.34,6.34,0,0,0,1.44,1.34c.77.58,1.25.42,1.61-.47a5.83,5.83,0,0,0,.31-3.2,14,14,0,0,0-1.47-4.27,55.23,55.23,0,0,1-3.86-9,11.79,11.79,0,0,1-.54-4.25A7.28,7.28,0,0,1,159.45.56a12.67,12.67,0,0,1,2.86-.48,33,33,0,0,1,8.81.47,11.89,11.89,0,0,1,6.12,3.14A6.25,6.25,0,0,1,179,7.76a12.2,12.2,0,0,1-.67,4.93,28.2,28.2,0,0,1-3.88,7.13,26.64,26.64,0,0,0-2.23,3.54,12.14,12.14,0,0,0-1,3.31c-.24,1.34.66,2,2,1.68a4.92,4.92,0,0,0,2.76-2.2c1.25-1.83,2.46-3.68,3.72-5.5A27.77,27.77,0,0,1,185,15a9,9,0,0,1,12,.23,23.27,23.27,0,0,1,7.39,12,10.83,10.83,0,0,1,.09,4.74A6.24,6.24,0,0,1,201,36.26a15.57,15.57,0,0,1-5.23,1.5,81.72,81.72,0,0,1-9.64.53,7.42,7.42,0,0,0-5.1,1.94C180,41.31,180,42,181.3,42.94a12.15,12.15,0,0,0,5.45,1.89c1.91.25,3.85.36,5.78.44A14.27,14.27,0,0,1,199.11,47a8.19,8.19,0,0,1,4.38,8.67,17.59,17.59,0,0,1-5,10.75c-.14.13-.27.28-.44.46a5.76,5.76,0,0,0,.26.62,86.43,86.43,0,0,1,8,22,106.92,106.92,0,0,1,2,13.81,134.22,134.22,0,0,1,.31,14.32,122.88,122.88,0,0,1-1.14,13.68q-1.08,8.25-3,16.37a6.22,6.22,0,0,1-.79,1.9,114.87,114.87,0,0,0-8.63,16,55,55,0,0,0-4,13.46,25.11,25.11,0,0,0,.82,11.74,21.07,21.07,0,0,0,4.39,7.34,35.14,35.14,0,0,0,9.69,7.35,72.52,72.52,0,0,0,18.3,6.68,92.56,92.56,0,0,0,12.36,2.13c.76.08,1.52.2,2.43.32-.5,8.76-1,17.49-1.48,26.36a15.36,15.36,0,0,1-1.67,0,134.79,134.79,0,0,1-20.7-3.68,105.38,105.38,0,0,1-17.83-6.35A69.61,69.61,0,0,1,181,220.29,47.59,47.59,0,0,1,165,192.15a52.75,52.75,0,0,1-.5-13.46,68.38,68.38,0,0,1,2.25-12.47c.07-.26.11-.52.19-.92a7.32,7.32,0,0,0-1.18-.1,93.84,93.84,0,0,0-21.66,4c-.4.13-.78.29-1.29.48,16.1,19,23.39,41.18,24.4,65.82l-26.55-.41c-.1-1.26-.18-2.41-.27-3.56a82.27,82.27,0,0,0-8.82-31.4,59.81,59.81,0,0,0-9.84-13.94l-2.15-2.27c-1,1.16-2,2.2-2.94,3.29A66.11,66.11,0,0,0,104.23,210a85.74,85.74,0,0,0-3.78,18.2c-.2,2.16-.34,4.32-.52,6.59a7.07,7.07,0,0,1-.93.14l-8.38.25c-2.71.08-5.43.15-8.14.24-2.17.07-4.35.14-6.52.23-.76,0-1.52.1-2.43.17A110.42,110.42,0,0,1,79.24,201a93.56,93.56,0,0,1,16.9-30.73c-3.54-1.89-19.65-4.83-23.48-4.29.07.37.1.74.2,1.1a61.64,61.64,0,0,1,2.21,19.71A47,47,0,0,1,69,207.57a52.74,52.74,0,0,1-15.57,16.92,80.58,80.58,0,0,1-20.14,10.32,115.7,115.7,0,0,1-17.94,4.87c-3.42.64-6.89,1-10.34,1.54C3.89,241.37,2.77,241.43,1.53,241.54Zm180-138.26c-.33.53-.55.84-.73,1.17a47.51,47.51,0,0,1-10,12.21,57.25,57.25,0,0,1-20.92,11.61,89.64,89.64,0,0,1-16.93,3.58,118.29,118.29,0,0,1-12.76.81c-3.33,0-6.66-.21-10-.37a84.07,84.07,0,0,1-11.41-1.41,71,71,0,0,1-21.38-7.31,49.87,49.87,0,0,1-18.53-17.12,10.72,10.72,0,0,0-.68-.83c-.09.49-.17.78-.19,1.07-.09.93-.2,1.85-.22,2.78-.08,2.88-.24,5.75-.15,8.62a102.79,102.79,0,0,0,1.14,12.39c.41,2.57.88,5.13,1.35,7.69.15.85.19.85,1.05.89h1.17c4,.08,7.92.09,11.87.25,2.67.12,5.33.41,8,.69a103,103,0,0,1,13.26,2.32,95.35,95.35,0,0,1,22.85,8.43,1.58,1.58,0,0,0,1.71,0,85.58,85.58,0,0,1,13-5.85,116.74,116.74,0,0,1,31.59-6.25c2.78-.19,5.58-.19,8.37-.25,1.79,0,3.58,0,5.37,0,.33,0,.66,0,1-.08.39-2.16.86-4.21,1.13-6.28.54-4.19,1.12-8.39,1.42-12.6.24-3.45.13-6.92.11-10.38,0-1.58-.19-3.17-.31-4.76A6.36,6.36,0,0,0,181.49,103.28ZM73.36,32.85A7.17,7.17,0,0,0,66.17,40,7.22,7.22,0,1,0,80.6,40,7.19,7.19,0,0,0,73.36,32.85Zm92.36,14.36a7.21,7.21,0,0,0,7.2-7.17,7.21,7.21,0,1,0-14.42.15A7.24,7.24,0,0,0,165.72,47.21Z"/><path class="cls-1" d="M181.49,103.28a6.36,6.36,0,0,1,.28,1c.12,1.59.3,3.18.31,4.76,0,3.46.13,6.93-.11,10.38-.3,4.21-.88,8.41-1.42,12.6-.27,2.07-.74,4.12-1.13,6.28-.37,0-.7.08-1,.08-1.79,0-3.58,0-5.37,0-2.79.06-5.59.06-8.37.25a116.74,116.74,0,0,0-31.59,6.25,85.58,85.58,0,0,0-13,5.85,1.58,1.58,0,0,1-1.71,0,95.35,95.35,0,0,0-22.85-8.43A103,103,0,0,0,82.2,140c-2.66-.28-5.32-.57-8-.69-3.95-.16-7.91-.17-11.87-.25H61.17c-.86,0-.9,0-1.05-.89-.47-2.56-.94-5.12-1.35-7.69a102.79,102.79,0,0,1-1.14-12.39c-.09-2.87.07-5.74.15-8.62,0-.93.13-1.85.22-2.78,0-.29.1-.58.19-1.07a10.72,10.72,0,0,1,.68.83A49.87,49.87,0,0,0,77.4,123.57a71,71,0,0,0,21.38,7.31,84.07,84.07,0,0,0,11.41,1.41c3.33.16,6.66.39,10,.37a118.29,118.29,0,0,0,12.76-.81,89.64,89.64,0,0,0,16.93-3.58,57.25,57.25,0,0,0,20.92-11.61,47.51,47.51,0,0,0,10-12.21C180.94,104.12,181.16,103.81,181.49,103.28Z"/></g></g></svg>