<svg xmlns="http://www.w3.org/2000/svg" viewBox="0 0 245.28 232.88"><defs><style>.cls-1{fill:#fff;}</style></defs><title>Ресурс 2</title><g id="Слой_2" data-name="Слой 2"><g id="Слой_1-2" data-name="Слой 1"><path d="M158.18,224.63l-24.54,3.45c-.24-.93-.46-1.75-.67-2.57a55.2,55.2,0,0,0-13-24.27,45.08,45.08,0,0,0-18.13-11.86A58.57,58.57,0,0,0,87,186.24a81.77,81.77,0,0,0-12-.13,63.82,63.82,0,0,0-22.78,5.23A43.46,43.46,0,0,0,32.94,208a53.71,53.71,0,0,0-7.42,20c-.22,1.31-.33,2.65-.51,4a7.6,7.6,0,0,1-.24.9l-24.69-.3a5.31,5.31,0,0,1-.08-.76,80.61,80.61,0,0,1,4.38-21.6,73.66,73.66,0,0,1,10.54-20.07,67.63,67.63,0,0,1,23.26-19.77A80.65,80.65,0,0,1,59.34,163c.58-.12,1.15-.27,1.81-.42-.38-1.71-.75-3.35-1.09-5a96.49,96.49,0,0,1-1.8-12.79,83.69,83.69,0,0,1,2.63-28.32A76.53,76.53,0,0,1,76.65,86.26c.67-.78,1.4-1.51,2.08-2.3a1.26,1.26,0,0,1,1.27-.4c3.71.5,7.4,1.16,11.12,1.41a76.55,76.55,0,0,0,11.63-.1,64.72,64.72,0,0,0,13.18-2.43,55.08,55.08,0,0,0,21.19-11.76,49.62,49.62,0,0,0,9.38-11.15,2.44,2.44,0,0,1,.3-.36l22.22,11a23.49,23.49,0,0,1-2.3,4.09,72.78,72.78,0,0,1-7.63,9.78,77.8,77.8,0,0,1-17.19,14,81.7,81.7,0,0,1-24,9.64,91.64,91.64,0,0,1-12.11,1.92,124.12,124.12,0,0,1-12.79.42,9,9,0,0,1-1.15-.14c-1.21-.16-1.52-.07-2,1.06-1.19,2.54-2.39,5.07-3.41,7.67a53.12,53.12,0,0,0-3.29,15.24A60.18,60.18,0,0,0,84,149.76c.6,3.17,1.46,6.29,2.21,9.43.08.33.19.66.3,1,.35,1,.36,1,1.47,1.09a86.73,86.73,0,0,1,11.24,1.52A77.89,77.89,0,0,1,116,168.18a69.85,69.85,0,0,1,17.12,11c10.79,9.46,18,21.25,22.48,34.78,1,3.1,1.66,6.32,2.47,9.5A9.29,9.29,0,0,1,158.18,224.63Z"/><path d="M139.25,0a56.56,56.56,0,0,1,10.5,1.63,80,80,0,0,1,17.81,6.45A72.54,72.54,0,0,1,184,19.43a67.73,67.73,0,0,1,13.85,17.93,79.32,79.32,0,0,1,8.25,25.58,105.63,105.63,0,0,1,1,19.62,89.64,89.64,0,0,1-5,27.23,71.17,71.17,0,0,1-14.21,24,73.17,73.17,0,0,1-20.37,15.74,82.31,82.31,0,0,1-21.53,7.87c-1.89.4-3.8.67-5.89,1-.81-8.35-1.6-16.52-2.41-24.8l3.81-.85a54.87,54.87,0,0,0,22.25-10.51,45.44,45.44,0,0,0,14.62-20.33A62.07,62.07,0,0,0,182,85.57,82.17,82.17,0,0,0,182.12,73a58.59,58.59,0,0,0-5.78-22.9,43.12,43.12,0,0,0-16.52-17.76,54.75,54.75,0,0,0-20.3-7.28c-.55-.09-1.09-.22-1.68-.34a2.53,2.53,0,0,1-.13-.63Q138.35,12.56,139,1A6.9,6.9,0,0,1,139.25,0Z"/><path d="M67.87,85.83c-4.81,0-8.59-2.21-11.84-5.52a16.4,16.4,0,0,1-1.37-1.72,4.75,4.75,0,0,1-.53-5.24,13.9,13.9,0,0,1,2.1-3.23C59,67,62,64,64.8,61a5.86,5.86,0,0,0,1.08-1.73c.37-.87.05-1.45-.89-1.58a5.34,5.34,0,0,0-2.29.06,33.5,33.5,0,0,0-6,2.4,21.09,21.09,0,0,1-12.6,2.55A6.92,6.92,0,0,1,38,57.92a15.15,15.15,0,0,1,.2-10.87,7.42,7.42,0,0,1,6-4.74,20,20,0,0,1,9.32.68c2.15.58,4.25,1.39,6.4,2a12.58,12.58,0,0,0,3.06.39c1.46,0,1.8-.59,1.14-1.85a7.24,7.24,0,0,0-3.47-3.18c-1.71-.81-3.48-1.49-5.21-2.26A30.8,30.8,0,0,1,49,34.52a7.24,7.24,0,0,1-1.32-10.64,25.54,25.54,0,0,1,8.67-7A10.71,10.71,0,0,1,61,15.7a6.29,6.29,0,0,1,5.18,2.46,16.17,16.17,0,0,1,3.14,7.43c.33,1.87.52,3.76.79,5.64a10.3,10.3,0,0,0,1.51,4.22c.92,1.44,2,1.39,2.83-.1a5.67,5.67,0,0,0,.34-3.54c-.3-2.48-.68-4.95-.9-7.44a19.14,19.14,0,0,1,.79-7.17,7.43,7.43,0,0,1,6.26-5.46,19.79,19.79,0,0,1,11.79,1.93A14.11,14.11,0,0,1,97.48,17a6.34,6.34,0,0,1,1,7.67,18.76,18.76,0,0,1-2.8,4c-1.58,1.76-3.34,3.36-5,5-1.44,1.38-2.9,2.73-3.26,4.84a5.29,5.29,0,0,0-.12.89c0,1.2.62,1.74,1.8,1.55a11.43,11.43,0,0,0,4.65-1.85c1.46-1,2.86-2.07,4.24-3.17A13.88,13.88,0,0,1,104,32.62c3.27-.62,6.21-.11,8.32,2.75,3.45,4.67,4.59,9.76,2.61,15.36a6.4,6.4,0,0,1-5.81,4.42,21.85,21.85,0,0,1-7.66-.92c-2.84-.7-5.7-1.31-8.56-2-.12,0-.25-.09-.37-.11a2.25,2.25,0,0,0-2.25,1.2,1.87,1.87,0,0,0,.91,2,30.46,30.46,0,0,0,4,2.17c2.65,1.14,5.37,2.13,8,3.21a10,10,0,0,1,4.36,3.13,6.08,6.08,0,0,1,1,5.27,14.23,14.23,0,0,1-3.12,5.75,24.5,24.5,0,0,1-8.09,6.92,9.27,9.27,0,0,1-3.87.91,3.69,3.69,0,0,1-3-1.4,31,31,0,0,1-4.89-8.18c-1.2-2.82-2.25-5.69-3.42-8.51a6.66,6.66,0,0,0-1.23-1.94c-.74-.8-1.51-.68-2.17.2a4,4,0,0,0-.91,2.63c.1,2,.36,4,.34,5.94A58.12,58.12,0,0,1,77.66,79c-.62,4.26-3.85,6.3-7.6,6.71C69.34,85.81,68.6,85.8,67.87,85.83ZM69.51,48.6a6.81,6.81,0,1,0,6.82-6.83A6.85,6.85,0,0,0,69.51,48.6Z"/><path d="M236.75,78.68a3.14,3.14,0,0,0,2.31,1.18,19.81,19.81,0,0,0,2.43.25,3.19,3.19,0,0,1,3.12,4.19,6.44,6.44,0,0,1-2,3.28,2.94,2.94,0,0,1-4.26-.17c-.58-.7-1.07-1.46-1.6-2.2s-.93-1.35-1.46-2a1,1,0,0,0-.85-.35c-.5.13-.38.63-.26,1,.23.69.53,1.37.82,2a29.58,29.58,0,0,1,1.24,2.83A2.33,2.33,0,0,1,234.59,92a8.81,8.81,0,0,1-5.08.29c-1.7-.44-2.22-1.1-1.85-2.8s1-3.37,1.54-5c.18-.56.58-1.09.18-1.75-.79-.28-1.26.21-1.72.75-.69.83-1.38,1.65-2.11,2.44-2.32,2.55-4.59,1.25-6-.61a5.9,5.9,0,0,1-1.06-4,2,2,0,0,1,1.88-2.1c1-.14,2.05-.19,3.08-.29.77-.07,1.54-.11,2.3-.25.24,0,.6-.3.63-.51a.89.89,0,0,0-.4-.71,20.55,20.55,0,0,0-2.39-1,8.39,8.39,0,0,1-3.77-2.15,2.69,2.69,0,0,1-.46-3.54,7.69,7.69,0,0,1,1.93-2,2.83,2.83,0,0,1,3.69.11,8.36,8.36,0,0,1,2.22,2.66c.36.59.67,1.21,1.06,1.77a9.46,9.46,0,0,0,1,1.06,1.64,1.64,0,0,0,.37-2c-.28-.81-.7-1.57-1-2.38a12.68,12.68,0,0,1-.75-2.46,2.53,2.53,0,0,1,2.31-3,14.11,14.11,0,0,1,3.84.22c2.14.45,3,2.09,2.14,4.12a27.77,27.77,0,0,1-1.58,2.8,13.69,13.69,0,0,0-.8,1.74c-.07.19.06.62.2.67a1,1,0,0,0,.81-.09,12.09,12.09,0,0,0,1.07-1.28,32.58,32.58,0,0,1,2.35-2.74c1.53-1.44,3.15-1.36,4.68.09a7.73,7.73,0,0,1,2.24,4c.39,1.75-.29,2.91-2,3.26a27,27,0,0,1-3.72.3A3,3,0,0,0,236.75,78.68ZM229.26,78a2.68,2.68,0,0,0,2.34,2.64,2.57,2.57,0,0,0,2.65-2.29A2.5,2.5,0,0,0,232,75.64,2.56,2.56,0,0,0,229.26,78Z"/><path class="cls-1" d="M229.26,78A2.56,2.56,0,0,1,232,75.64a2.5,2.5,0,0,1,2.23,2.67,2.57,2.57,0,0,1-2.65,2.29A2.68,2.68,0,0,1,229.26,78Z"/></g></g></svg>