<svg xmlns="http://www.w3.org/2000/svg" viewBox="0 0 279.83 232.63"><title>Ресурс 5</title><g id="Слой_2" data-name="Слой 2"><g id="Слой_1-2" data-name="Слой 1"><path d="M112,33c.24,1.4.5,2.65.66,3.92A80.21,80.21,0,0,1,113,53.5a60.54,60.54,0,0,1-5.89,22.08A49.92,49.92,0,0,1,98.89,87.7a56.14,56.14,0,0,1-9.42,8.06c-.18.12-.35.27-.61.48L90.12,99a70.6,70.6,0,0,1,6.29,23.91A78,78,0,0,1,93,152.61c-.73,2.38-1.57,4.72-2.4,7.23.39.18.81.41,1.24.57A72.16,72.16,0,0,1,115,174.33,61.79,61.79,0,0,1,132.25,201a70.79,70.79,0,0,1,3.47,17.39,68.23,68.23,0,0,1-.24,13.48,6.1,6.1,0,0,1-.23.81l-21.58-3.53c0-.56,0-1.08.08-1.6A47.81,47.81,0,0,0,109,202.45a40.64,40.64,0,0,0-16.89-17.57,68.67,68.67,0,0,0-22.37-7.68A53.19,53.19,0,0,0,57,176.52,38.36,38.36,0,0,0,32.07,187.7a49.09,49.09,0,0,0-10.78,16c-.12.28-.28.54-.45.88L0,197.7c.41-1.12.76-2.21,1.22-3.25A71.77,71.77,0,0,1,14.7,173.87,61.65,61.65,0,0,1,33,160.37a59.67,59.67,0,0,1,15.58-5,71.82,71.82,0,0,1,14.49-1,36,36,0,0,1,4.65.34,1.07,1.07,0,0,0,1.4-.8c1.06-2.93,2.26-5.82,3.16-8.8a54.38,54.38,0,0,0,2.23-20.21,46.87,46.87,0,0,0-4-15.6c-.67-1.5-1.43-3-2.19-4.52-2,.43-4,.79-5.85,1.24a50,50,0,0,0-14.87,5.82,26.62,26.62,0,0,0-9.87,10.3,26,26,0,0,0-2.71,8.77,32.57,32.57,0,0,0,.2,10.24,4.9,4.9,0,0,1,.07.67,3,3,0,0,1,0,.46l-21.07,5.79c-.2-.85-.43-1.65-.58-2.46a54.16,54.16,0,0,1,1.59-26.54,46.46,46.46,0,0,1,17-23.41A64,64,0,0,1,53.61,85.53c3.42-1,6.93-1.59,10.38-2.47,5.66-1.45,11-3.6,15.56-7.39a30.08,30.08,0,0,0,9.22-13.22A43.71,43.71,0,0,0,91.26,47.9a51.81,51.81,0,0,0-.6-9.06c0-.26,0-.53-.06-1Z"/><path d="M255.14,77.14c3.91,6.19,7.77,12.32,11.73,18.6-2.09,1.11-4,2.22-6,3.16a68.29,68.29,0,0,1-17.22,5.58c-2.75.49-5.55.74-8.33,1a33.26,33.26,0,0,1-3.6.19,51.49,51.49,0,0,1-23.36-5.28c-2.42-1.21-4.69-2.74-7-4.13-.49-.3-.94-.65-1.51-1a8.89,8.89,0,0,0-.56,1.11,50.05,50.05,0,0,0-2.75,12.08c-1,10.31,1.07,20.11,5,29.61a3.46,3.46,0,0,0,.3.44c.46-.11,1-.21,1.47-.35a67.72,67.72,0,0,1,14.94-2.62c2.8-.13,5.62-.32,8.41-.17a61.19,61.19,0,0,1,18.47,3.82,66.47,66.47,0,0,1,21.49,13.24,72.81,72.81,0,0,1,12.14,14.19c.38.59.72,1.21,1.15,1.95l-19.19,10.65c-1.07-1.44-2-2.83-3.08-4.16a47.77,47.77,0,0,0-17.68-14.14,37.4,37.4,0,0,0-11.25-3.22,49.67,49.67,0,0,0-22.35,2.63,66.79,66.79,0,0,0-20.76,11.1,38.87,38.87,0,0,0-14.79,27.32,48.17,48.17,0,0,0,1.58,17.6c.1.38.16.77.24,1.18l-20.61,7.55c-.3-1-.57-1.74-.8-2.54a72.17,72.17,0,0,1-2.46-14.46,66,66,0,0,1,1.93-21.73,59.38,59.38,0,0,1,13.74-25.23,70.53,70.53,0,0,1,15.13-12.46l1.9-1.22c-.24-.65-.46-1.27-.7-1.87A87.48,87.48,0,0,1,175.06,125c-.43-3.08-.63-6.2-.77-9.31a68.9,68.9,0,0,1,2.59-21.8,66.88,66.88,0,0,1,6.41-15.38,1.86,1.86,0,0,0,0-2.17A66.05,66.05,0,0,0,176,66.25a33.76,33.76,0,0,0-11.75-8.87,25.31,25.31,0,0,0-17.77-.76,38.58,38.58,0,0,0-8.2,3.56L125.63,42.09c1.39-.81,2.69-1.64,4.06-2.37a50.44,50.44,0,0,1,14.51-5.23c2.57-.49,5.19-.68,7.8-1a17.7,17.7,0,0,1,2.52-.19,47.85,47.85,0,0,1,26,7.8,57.73,57.73,0,0,1,9.89,8.15,80.07,80.07,0,0,1,11.4,15.12,49.48,49.48,0,0,0,7.41,9.78,30.36,30.36,0,0,0,17.29,9.13,36.2,36.2,0,0,0,12.75-.38A54.65,54.65,0,0,0,254.6,77.3,4.46,4.46,0,0,1,255.14,77.14Z"/><path d="M224.32,0a9,9,0,0,1,4.19.82,5.46,5.46,0,0,1,3.16,3.73,13.83,13.83,0,0,1-.5,7.75c-.47,1.53-1.09,3-1.58,4.54a7.8,7.8,0,0,0-.5,4.06c.3,1.35,1.1,1.71,2.19.83A4.86,4.86,0,0,0,232.64,20c.68-1.59,1.2-3.25,1.8-4.88a25.13,25.13,0,0,1,3.82-6.86,7.09,7.09,0,0,1,8.44-2.12,17.49,17.49,0,0,1,9.68,9.32c1.43,3.2.86,6-2.47,8.07a25.13,25.13,0,0,1-6.52,2.69c-1.49.44-3,.85-4.48,1.33a5.55,5.55,0,0,0-3.14,2.55c-.5.85-.35,1.46.56,1.81a7,7,0,0,0,2.45.56,47.64,47.64,0,0,0,5.05-.37c1.67-.21,3.32-.62,5-.83a7.37,7.37,0,0,1,8.27,6.39,14.24,14.24,0,0,1-2.8,11.09,12.4,12.4,0,0,1-1.68,1.72,5.81,5.81,0,0,1-5.54,1c-2.41-.63-4.21-2.26-6-3.83s-3.93-3.35-5.9-5a2.28,2.28,0,0,0-1.95-.66c-.76.14-1.13.53-1,1.29a3.86,3.86,0,0,0,.47,1.36,34.19,34.19,0,0,0,4.39,5.7,23.64,23.64,0,0,1,4,5.14c1.47,3,.93,5.51-1.66,7.6a21.8,21.8,0,0,1-8.71,3.87,11.51,11.51,0,0,1-5.68.28,12.66,12.66,0,0,1-1.89-.62,2.81,2.81,0,0,1-1.72-2.08,22.86,22.86,0,0,1-.61-7.28c.28-3.06.57-6.11.78-9.18a6.65,6.65,0,0,0-.33-2.47,1,1,0,0,0-1.61-.53,8.22,8.22,0,0,0-1.82,1.71,6,6,0,0,0-.84,1.81,34.59,34.59,0,0,1-4.34,8.25,6.63,6.63,0,0,1-4,3,9.18,9.18,0,0,1-5.75-.57c-5-2.1-7.38-6.17-8.49-11.22a4.4,4.4,0,0,1,1.87-4.9,12.92,12.92,0,0,1,2.81-1.51c3-1.13,6.12-2.17,9.18-3.25a12.43,12.43,0,0,0,2.09-.87c1.37-.8,1.36-1.65,0-2.44a3.86,3.86,0,0,0-1.48-.55c-2-.23-4.06-.46-6.1-.53a20.61,20.61,0,0,1-6.67-1.22,22.54,22.54,0,0,1-3.32-1.69c-2.67-1.57-3.65-4.28-3-7.38A13.51,13.51,0,0,1,198,16.41c2.23-2,4.79-2.11,7.49-1.2a17,17,0,0,1,6.24,4c1.3,1.23,2.48,2.57,3.81,3.76a16.67,16.67,0,0,0,2.93,2.07c.94.51,1.38.16,1.44-.92a6.23,6.23,0,0,0-1.44-4.08c-1-1.35-2.22-2.56-3.21-3.92A39.36,39.36,0,0,1,211.91,11a6.16,6.16,0,0,1,.65-7.25,7.13,7.13,0,0,1,2.94-2A23.69,23.69,0,0,1,224.32,0Zm-2.86,32.86a6,6,0,0,0,6,6,6,6,0,1,0-6-6Z"/><path d="M62.18,52.37c-1.78.13-3.56.17-5.31.42a7.71,7.71,0,0,0-2.31,1A.72.72,0,0,0,54.35,55a5.47,5.47,0,0,0,1.56,1.2c1.17.54,2.4.93,3.6,1.41,2.44,1,4.89,1.92,7.3,2.95A12,12,0,0,1,69,61.85a4.29,4.29,0,0,1,1.84,4.3,12.6,12.6,0,0,1-1.69,5A22.06,22.06,0,0,1,66.24,75a11.17,11.17,0,0,1-8.68,3.41A5.86,5.86,0,0,1,53,76a30.58,30.58,0,0,1-4.45-8.34c-.27-.75-.52-1.51-.79-2.27a4.75,4.75,0,0,0-2-2.4c-.82-.5-1.5-.31-1.81.6a6.62,6.62,0,0,0-.29,2.22c.12,3.38.31,6.76.44,10.14a23.63,23.63,0,0,1-.77,6.08A3.33,3.33,0,0,1,41,84.56a10,10,0,0,1-5.92.23,26.39,26.39,0,0,1-7.57-2.91A17.69,17.69,0,0,1,25,80.07a5.59,5.59,0,0,1-1.43-6.91,17.4,17.4,0,0,1,3.78-4.82,40.4,40.4,0,0,0,5.06-5.86,4,4,0,0,0,.59-1,1.54,1.54,0,0,0-.25-1.74A1.58,1.58,0,0,0,31,59.55a6.88,6.88,0,0,0-1.34.88c-2.45,1.93-4.87,3.9-7.34,5.8A10.34,10.34,0,0,1,17,68.6a5.74,5.74,0,0,1-4.65-1.49,13.08,13.08,0,0,1-4.15-9,13.4,13.4,0,0,1,.41-4.63,7,7,0,0,1,6.6-5.27,24.17,24.17,0,0,1,6.72.93,20.28,20.28,0,0,0,4.07.64,11.76,11.76,0,0,0,3.5-.61c.85-.26,1-.78.56-1.59a5.5,5.5,0,0,0-3-2.74c-1.07-.43-2.2-.7-3.28-1.12-2.16-.83-4.3-1.68-6.43-2.58a7.68,7.68,0,0,1-1.7-1.06c-2.6-2.06-3.28-4.56-1.79-7.73a17.67,17.67,0,0,1,9.68-9c3.54-1.44,6.7-.45,9,2.63a24.88,24.88,0,0,1,3.74,7.93c.35,1.2.74,2.39,1.13,3.57a3.66,3.66,0,0,0,1.46,2c1.11.73,2,.34,2.17-1a10.08,10.08,0,0,0-.44-4.22c-.53-1.61-1.07-3.22-1.5-4.85A15,15,0,0,1,38.63,24c.44-4.15,2.78-5.68,6-6a19.66,19.66,0,0,1,11.46,2.41c3.44,1.85,4.36,5.72,2.26,9.34a38.1,38.1,0,0,1-5.11,6.5,20.2,20.2,0,0,0-2.55,3.41,6.41,6.41,0,0,0-.7,2.53c-.11,1.05.44,1.39,1.42,1a14,14,0,0,0,4.11-2.93c1.37-1.27,2.7-2.6,4.17-3.75a14.51,14.51,0,0,1,6.57-3.08,6.57,6.57,0,0,1,6.17,2.07,13.68,13.68,0,0,1,3.75,7.4,6.53,6.53,0,0,1-3.12,7A17.87,17.87,0,0,1,62.18,52.37Zm-19.89-7.7a6,6,0,0,0-6.08,6,5.79,5.79,0,0,0,6,6,5.92,5.92,0,0,0,6-5.9A6.14,6.14,0,0,0,42.29,44.67Z"/></g></g></svg>